<svg xmlns="http://www.w3.org/2000/svg" xmlns:xlink="http://www.w3.org/1999/xlink" contentStyleType="text/css" data-diagram-type="CLASS" height="567px" preserveAspectRatio="none" style="width:601px;height:567px;background:#FFFFFF;" version="1.1" viewBox="0 0 601 567" width="601px" zoomAndPan="magnify"><defs/><g><!--class GameSession--><g class="entity" data-entity="GameSession" data-source-line="11" data-uid="ent0002" id="entity_GameSession"><rect fill="#F1F1F1" height="64" rx="2.5" ry="2.5" style="stroke:#181818;stroke-width:0.5;" width="78.2461" x="40" y="434"/><ellipse cx="53" cy="448" fill="#ADD1B2" rx="9" ry="9" style="stroke:#181818;stroke-width:1;"/><path d="M54.7505,450.811 Q54.4429,450.9692 54.1045,451.0483 Q53.7661,451.1274 53.3926,451.1274 Q52.0654,451.1274 51.3667,450.2529 Q50.668,449.3784 50.668,447.7261 Q50.668,446.0693 51.3667,445.1948 Q52.0654,444.3203 53.3926,444.3203 Q53.7661,444.3203 54.1089,444.3994 Q54.4517,444.4785 54.7505,444.6367 L54.7505,446.0781 Q54.4165,445.7705 54.1023,445.6277 Q53.7881,445.4849 53.4541,445.4849 Q52.7422,445.4849 52.3796,446.0496 Q52.0171,446.6143 52.0171,447.7261 Q52.0171,448.8335 52.3796,449.3982 Q52.7422,449.9629 53.4541,449.9629 Q53.7881,449.9629 54.1023,449.8201 Q54.4165,449.6772 54.7505,449.3696 Z " fill="#000000"/><text fill="#000000" font-family="Arial" font-size="8" lengthAdjust="spacing" textLength="50.2461" x="65" y="450.5039">GameSession</text><line style="stroke:#181818;stroke-width:0.5;" x1="41" x2="117.2461" y1="462" y2="462"/><text fill="#000000" font-family="Arial" font-size="8" lengthAdjust="spacing" textLength="26.2344" x="46" y="473.5039">-saveId</text><line style="stroke:#181818;stroke-width:0.5;" x1="41" x2="117.2461" y1="480" y2="480"/><text fill="#000000" font-family="Arial" font-size="8" lengthAdjust="spacing" textLength="49.1328" x="46" y="491.5039">+startRound()</text></g><!--class Round--><g class="entity" data-entity="Round" data-source-line="16" data-uid="ent0003" id="entity_Round"><rect fill="#F1F1F1" height="74" rx="2.5" ry="2.5" style="stroke:#181818;stroke-width:0.5;" width="77.1406" x="203.5" y="342"/><ellipse cx="228.0049" cy="356" fill="#ADD1B2" rx="9" ry="9" style="stroke:#181818;stroke-width:1;"/><path d="M229.7554,358.811 Q229.4478,358.9692 229.1094,359.0483 Q228.771,359.1274 228.3975,359.1274 Q227.0703,359.1274 226.3716,358.2529 Q225.6729,357.3784 225.6729,355.7261 Q225.6729,354.0693 226.3716,353.1948 Q227.0703,352.3203 228.3975,352.3203 Q228.771,352.3203 229.1138,352.3994 Q229.4565,352.4785 229.7554,352.6367 L229.7554,354.0781 Q229.4214,353.7705 229.1072,353.6277 Q228.793,353.4849 228.459,353.4849 Q227.7471,353.4849 227.3845,354.0496 Q227.022,354.6143 227.022,355.7261 Q227.022,356.8335 227.3845,357.3982 Q227.7471,357.9629 228.459,357.9629 Q228.793,357.9629 229.1072,357.8201 Q229.4214,357.6772 229.7554,357.3696 Z " fill="#000000"/><text fill="#000000" font-family="Arial" font-size="8" lengthAdjust="spacing" textLength="23.5742" x="242.5615" y="358.5039">Round</text><line style="stroke:#181818;stroke-width:0.5;" x1="204.5" x2="279.6406" y1="370" y2="370"/><text fill="#000000" font-family="Arial" font-size="8" lengthAdjust="spacing" textLength="24.4609" x="209.5" y="381.5039">-phase</text><line style="stroke:#181818;stroke-width:0.5;" x1="204.5" x2="279.6406" y1="388" y2="388"/><text fill="#000000" font-family="Arial" font-size="8" lengthAdjust="spacing" textLength="65.1406" x="209.5" y="399.5039">+dealInitialCards()</text><text fill="#000000" font-family="Arial" font-size="8" lengthAdjust="spacing" textLength="51.3594" x="209.5" y="409.5039">+applyAction()</text></g><!--class PlayerRound--><g class="entity" data-entity="PlayerRound" data-source-line="22" data-uid="ent0004" id="entity_PlayerRound"><rect fill="#F1F1F1" height="54" rx="2.5" ry="2.5" style="stroke:#181818;stroke-width:0.5;" width="74.25" x="332" y="323"/><ellipse cx="345" cy="337" fill="#ADD1B2" rx="9" ry="9" style="stroke:#181818;stroke-width:1;"/><path d="M346.7505,339.811 Q346.4429,339.9692 346.1045,340.0483 Q345.7661,340.1274 345.3926,340.1274 Q344.0654,340.1274 343.3667,339.2529 Q342.668,338.3784 342.668,336.7261 Q342.668,335.0693 343.3667,334.1948 Q344.0654,333.3203 345.3926,333.3203 Q345.7661,333.3203 346.1089,333.3994 Q346.4517,333.4785 346.7505,333.6367 L346.7505,335.0781 Q346.4165,334.7705 346.1023,334.6277 Q345.7881,334.4849 345.4541,334.4849 Q344.7422,334.4849 344.3796,335.0496 Q344.0171,335.6143 344.0171,336.7261 Q344.0171,337.8335 344.3796,338.3982 Q344.7422,338.9629 345.4541,338.9629 Q345.7881,338.9629 346.1023,338.8201 Q346.4165,338.6772 346.7505,338.3696 Z " fill="#000000"/><text fill="#000000" font-family="Arial" font-size="8" lengthAdjust="spacing" textLength="46.25" x="357" y="339.5039">PlayerRound</text><line style="stroke:#181818;stroke-width:0.5;" x1="333" x2="405.25" y1="351" y2="351"/><text fill="#000000" font-family="Arial" font-size="8" lengthAdjust="spacing" textLength="26.4688" x="338" y="362.5039">+hands</text><line style="stroke:#181818;stroke-width:0.5;" x1="333" x2="405.25" y1="369" y2="369"/></g><!--class Hand--><g class="entity" data-entity="Hand" data-source-line="26" data-uid="ent0005" id="entity_Hand"><rect fill="#F1F1F1" height="64" rx="2.5" ry="2.5" style="stroke:#181818;stroke-width:0.5;" width="47.125" x="443" y="356"/><ellipse cx="456" cy="370" fill="#ADD1B2" rx="9" ry="9" style="stroke:#181818;stroke-width:1;"/><path d="M457.7505,372.811 Q457.4429,372.9692 457.1045,373.0483 Q456.7661,373.1274 456.3926,373.1274 Q455.0654,373.1274 454.3667,372.2529 Q453.668,371.3784 453.668,369.7261 Q453.668,368.0693 454.3667,367.1948 Q455.0654,366.3203 456.3926,366.3203 Q456.7661,366.3203 457.1089,366.3994 Q457.4517,366.4785 457.7505,366.6367 L457.7505,368.0781 Q457.4165,367.7705 457.1023,367.6277 Q456.7881,367.4849 456.4541,367.4849 Q455.7422,367.4849 455.3796,368.0496 Q455.0171,368.6143 455.0171,369.7261 Q455.0171,370.8335 455.3796,371.3982 Q455.7422,371.9629 456.4541,371.9629 Q456.7881,371.9629 457.1023,371.8201 Q457.4165,371.6772 457.7505,371.3696 Z " fill="#000000"/><text fill="#000000" font-family="Arial" font-size="8" lengthAdjust="spacing" textLength="19.125" x="468" y="372.5039">Hand</text><line style="stroke:#181818;stroke-width:0.5;" x1="444" x2="489.125" y1="384" y2="384"/><text fill="#000000" font-family="Arial" font-size="8" lengthAdjust="spacing" textLength="22.2266" x="449" y="395.5039">-cards</text><line style="stroke:#181818;stroke-width:0.5;" x1="444" x2="489.125" y1="402" y2="402"/><text fill="#000000" font-family="Arial" font-size="8" lengthAdjust="spacing" textLength="29.5625" x="449" y="413.5039">+score()</text></g><!--class Bet--><g class="entity" data-entity="Bet" data-source-line="31" data-uid="ent0006" id="entity_Bet"><rect fill="#F1F1F1" height="64" rx="2.5" ry="2.5" style="stroke:#181818;stroke-width:0.5;" width="67.1445" x="527" y="320"/><ellipse cx="552.2115" cy="334" fill="#ADD1B2" rx="9" ry="9" style="stroke:#181818;stroke-width:1;"/><path d="M553.962,336.811 Q553.6544,336.9692 553.316,337.0483 Q552.9776,337.1274 552.6041,337.1274 Q551.277,337.1274 550.5782,336.2529 Q549.8795,335.3784 549.8795,333.7261 Q549.8795,332.0693 550.5782,331.1948 Q551.277,330.3203 552.6041,330.3203 Q552.9776,330.3203 553.3204,330.3994 Q553.6632,330.4785 553.962,330.6367 L553.962,332.0781 Q553.628,331.7705 553.3138,331.6277 Q552.9996,331.4849 552.6656,331.4849 Q551.9537,331.4849 551.5912,332.0496 Q551.2286,332.6143 551.2286,333.7261 Q551.2286,334.8335 551.5912,335.3982 Q551.9537,335.9629 552.6656,335.9629 Q552.9996,335.9629 553.3138,335.8201 Q553.628,335.6772 553.962,335.3696 Z " fill="#000000"/><text fill="#000000" font-family="Arial" font-size="8" lengthAdjust="spacing" textLength="12.0078" x="566.9252" y="336.5039">Bet</text><line style="stroke:#181818;stroke-width:0.5;" x1="528" x2="593.1445" y1="348" y2="348"/><text fill="#000000" font-family="Arial" font-size="8" lengthAdjust="spacing" textLength="37.7969" x="533" y="359.5039">mainStake</text><text fill="#000000" font-family="Arial" font-size="8" lengthAdjust="spacing" textLength="55.1445" x="533" y="369.5039">insuranceStake</text><line style="stroke:#181818;stroke-width:0.5;" x1="528" x2="593.1445" y1="376" y2="376"/></g><!--class Shoe--><g class="entity" data-entity="Shoe" data-source-line="36" data-uid="ent0007" id="entity_Shoe"><rect fill="#F1F1F1" height="64" rx="2.5" ry="2.5" style="stroke:#181818;stroke-width:0.5;" width="61.5781" x="211" y="434"/><ellipse cx="230.7025" cy="448" fill="#ADD1B2" rx="9" ry="9" style="stroke:#181818;stroke-width:1;"/><path d="M232.453,450.811 Q232.1454,450.9692 231.807,451.0483 Q231.4687,451.1274 231.0951,451.1274 Q229.768,451.1274 229.0692,450.2529 Q228.3705,449.3784 228.3705,447.7261 Q228.3705,446.0693 229.0692,445.1948 Q229.768,444.3203 231.0951,444.3203 Q231.4687,444.3203 231.8114,444.3994 Q232.1542,444.4785 232.453,444.6367 L232.453,446.0781 Q232.119,445.7705 231.8048,445.6277 Q231.4906,445.4849 231.1566,445.4849 Q230.4447,445.4849 230.0822,446.0496 Q229.7196,446.6143 229.7196,447.7261 Q229.7196,448.8335 230.0822,449.3982 Q230.4447,449.9629 231.1566,449.9629 Q231.4906,449.9629 231.8048,449.8201 Q232.119,449.6772 232.453,449.3696 Z " fill="#000000"/><text fill="#000000" font-family="Arial" font-size="8" lengthAdjust="spacing" textLength="18.6836" x="244.192" y="450.5039">Shoe</text><line style="stroke:#181818;stroke-width:0.5;" x1="212" x2="271.5781" y1="462" y2="462"/><line style="stroke:#181818;stroke-width:0.5;" x1="212" x2="271.5781" y1="470" y2="470"/><text fill="#000000" font-family="Arial" font-size="8" lengthAdjust="spacing" textLength="27.3398" x="217" y="481.5039">+draw()</text><text fill="#000000" font-family="Arial" font-size="8" lengthAdjust="spacing" textLength="49.5781" x="217" y="491.5039">+needsRefill()</text></g><!--class GameRules--><g class="entity" data-entity="GameRules" data-source-line="41" data-uid="ent0008" id="entity_GameRules"><rect fill="#F1F1F1" height="44" rx="2.5" ry="2.5" style="stroke:#181818;stroke-width:0.5;" width="70.2383" x="207" y="516"/><ellipse cx="220" cy="530" fill="#ADD1B2" rx="9" ry="9" style="stroke:#181818;stroke-width:1;"/><path d="M221.7505,532.811 Q221.4429,532.9692 221.1045,533.0483 Q220.7661,533.1274 220.3926,533.1274 Q219.0654,533.1274 218.3667,532.2529 Q217.668,531.3784 217.668,529.7261 Q217.668,528.0693 218.3667,527.1948 Q219.0654,526.3203 220.3926,526.3203 Q220.7661,526.3203 221.1089,526.3994 Q221.4517,526.4785 221.7505,526.6367 L221.7505,528.0781 Q221.4165,527.7705 221.1023,527.6277 Q220.7881,527.4849 220.4541,527.4849 Q219.7422,527.4849 219.3796,528.0496 Q219.0171,528.6143 219.0171,529.7261 Q219.0171,530.8335 219.3796,531.3982 Q219.7422,531.9629 220.4541,531.9629 Q220.7881,531.9629 221.1023,531.8201 Q221.4165,531.6772 221.7505,531.3696 Z " fill="#000000"/><text fill="#000000" font-family="Arial" font-size="8" lengthAdjust="spacing" textLength="42.2383" x="232" y="532.5039">GameRules</text><line style="stroke:#181818;stroke-width:0.5;" x1="208" x2="276.2383" y1="544" y2="544"/><line style="stroke:#181818;stroke-width:0.5;" x1="208" x2="276.2383" y1="552" y2="552"/></g><!--class Card--><g class="entity" data-entity="Card" data-source-line="42" data-uid="ent0009" id="entity_Card"><rect fill="#F1F1F1" height="44" rx="2.5" ry="2.5" style="stroke:#181818;stroke-width:0.5;" width="45.3398" x="538" y="402"/><ellipse cx="551" cy="416" fill="#ADD1B2" rx="9" ry="9" style="stroke:#181818;stroke-width:1;"/><path d="M552.7505,418.811 Q552.4429,418.9692 552.1045,419.0483 Q551.7661,419.1274 551.3926,419.1274 Q550.0654,419.1274 549.3667,418.2529 Q548.668,417.3784 548.668,415.7261 Q548.668,414.0693 549.3667,413.1948 Q550.0654,412.3203 551.3926,412.3203 Q551.7661,412.3203 552.1089,412.3994 Q552.4517,412.4785 552.7505,412.6367 L552.7505,414.0781 Q552.4165,413.7705 552.1023,413.6277 Q551.7881,413.4849 551.4541,413.4849 Q550.7422,413.4849 550.3796,414.0496 Q550.0171,414.6143 550.0171,415.7261 Q550.0171,416.8335 550.3796,417.3982 Q550.7422,417.9629 551.4541,417.9629 Q551.7881,417.9629 552.1023,417.8201 Q552.4165,417.6772 552.7505,417.3696 Z " fill="#000000"/><text fill="#000000" font-family="Arial" font-size="8" lengthAdjust="spacing" textLength="17.3398" x="563" y="418.5039">Card</text><line style="stroke:#181818;stroke-width:0.5;" x1="539" x2="582.3398" y1="430" y2="430"/><line style="stroke:#181818;stroke-width:0.5;" x1="539" x2="582.3398" y1="438" y2="438"/></g><!--class Participant--><g class="entity" data-entity="Participant" data-source-line="44" data-uid="ent0010" id="entity_Participant"><rect fill="#F1F1F1" height="54" rx="2.5" ry="2.5" style="stroke:#181818;stroke-width:0.5;" width="65.7969" x="46" y="239"/><ellipse cx="59" cy="253" fill="#ADD1B2" rx="9" ry="9" style="stroke:#181818;stroke-width:1;"/><path d="M60.7505,255.811 Q60.4429,255.9692 60.1045,256.0483 Q59.7661,256.1274 59.3926,256.1274 Q58.0654,256.1274 57.3667,255.2529 Q56.668,254.3784 56.668,252.7261 Q56.668,251.0693 57.3667,250.1948 Q58.0654,249.3203 59.3926,249.3203 Q59.7661,249.3203 60.1089,249.3994 Q60.4517,249.4785 60.7505,249.6367 L60.7505,251.0781 Q60.4165,250.7705 60.1023,250.6277 Q59.7881,250.4849 59.4541,250.4849 Q58.7422,250.4849 58.3796,251.0496 Q58.0171,251.6143 58.0171,252.7261 Q58.0171,253.8335 58.3796,254.3982 Q58.7422,254.9629 59.4541,254.9629 Q59.7881,254.9629 60.1023,254.8201 Q60.4165,254.6772 60.7505,254.3696 Z " fill="#000000"/><text fill="#000000" font-family="Arial" font-size="8" lengthAdjust="spacing" textLength="37.7969" x="71" y="255.5039">Participant</text><line style="stroke:#181818;stroke-width:0.5;" x1="47" x2="110.7969" y1="267" y2="267"/><text fill="#000000" font-family="Arial" font-size="8" lengthAdjust="spacing" textLength="30.6875" x="52" y="278.5039">-balance</text><line style="stroke:#181818;stroke-width:0.5;" x1="47" x2="110.7969" y1="285" y2="285"/></g><!--class License--><g class="entity" data-entity="License" data-source-line="48" data-uid="ent0011" id="entity_License"><rect fill="#F1F1F1" height="64" rx="2.5" ry="2.5" style="stroke:#181818;stroke-width:0.5;" width="55.5742" x="214" y="198"/><ellipse cx="227" cy="212" fill="#ADD1B2" rx="9" ry="9" style="stroke:#181818;stroke-width:1;"/><path d="M228.7505,214.811 Q228.4429,214.9692 228.1045,215.0483 Q227.7661,215.1274 227.3926,215.1274 Q226.0654,215.1274 225.3667,214.2529 Q224.668,213.3784 224.668,211.7261 Q224.668,210.0693 225.3667,209.1948 Q226.0654,208.3203 227.3926,208.3203 Q227.7661,208.3203 228.1089,208.3994 Q228.4517,208.4785 228.7505,208.6367 L228.7505,210.0781 Q228.4165,209.7705 228.1023,209.6277 Q227.7881,209.4849 227.4541,209.4849 Q226.7422,209.4849 226.3796,210.0496 Q226.0171,210.6143 226.0171,211.7261 Q226.0171,212.8335 226.3796,213.3982 Q226.7422,213.9629 227.4541,213.9629 Q227.7881,213.9629 228.1023,213.8201 Q228.4165,213.6772 228.7505,213.3696 Z " fill="#000000"/><text fill="#000000" font-family="Arial" font-size="8" lengthAdjust="spacing" textLength="27.5742" x="239" y="214.5039">License</text><line style="stroke:#181818;stroke-width:0.5;" x1="215" x2="268.5742" y1="226" y2="226"/><text fill="#000000" font-family="Arial" font-size="8" lengthAdjust="spacing" textLength="11.1133" x="220" y="237.5039">tier</text><text fill="#000000" font-family="Arial" font-size="8" lengthAdjust="spacing" textLength="33.3477" x="220" y="247.5039">expiresAt</text><line style="stroke:#181818;stroke-width:0.5;" x1="215" x2="268.5742" y1="254" y2="254"/></g><!--class PlayerLike--><g class="entity" data-entity="PlayerLike" data-source-line="53" data-uid="ent0012" id="entity_PlayerLike"><rect fill="#F1F1F1" height="44" rx="2.5" ry="2.5" style="stroke:#181818;stroke-width:0.5;" width="65.3516" x="209.5" y="280"/><ellipse cx="222.5" cy="294" fill="#B4A7E5" rx="9" ry="9" style="stroke:#181818;stroke-width:1;"/><path d="M220.7559,292.0815 L220.7559,290.939 L224.6626,290.939 L224.6626,292.0815 L223.3574,292.0815 L223.3574,296.3574 L224.6626,296.3574 L224.6626,297.5 L220.7559,297.5 L220.7559,296.3574 L222.061,296.3574 L222.061,292.0815 Z " fill="#000000"/><text fill="#000000" font-family="Arial" font-size="8" font-style="italic" lengthAdjust="spacing" textLength="37.3516" x="234.5" y="296.5039">PlayerLike</text><line style="stroke:#181818;stroke-width:0.5;" x1="210.5" x2="273.8516" y1="308" y2="308"/><line style="stroke:#181818;stroke-width:0.5;" x1="210.5" x2="273.8516" y1="316" y2="316"/></g><!--class SaveGameRepository--><g class="entity" data-entity="SaveGameRepository" data-source-line="54" data-uid="ent0013" id="entity_SaveGameRepository"><rect fill="#F1F1F1" height="44" rx="2.5" ry="2.5" style="stroke:#181818;stroke-width:0.5;" width="106.2578" x="189" y="136"/><ellipse cx="202" cy="150" fill="#B4A7E5" rx="9" ry="9" style="stroke:#181818;stroke-width:1;"/><path d="M200.2559,148.0815 L200.2559,146.939 L204.1626,146.939 L204.1626,148.0815 L202.8574,148.0815 L202.8574,152.3574 L204.1626,152.3574 L204.1626,153.5 L200.2559,153.5 L200.2559,152.3574 L201.561,152.3574 L201.561,148.0815 Z " fill="#000000"/><text fill="#000000" font-family="Arial" font-size="8" font-style="italic" lengthAdjust="spacing" textLength="78.2578" x="214" y="152.5039">SaveGameRepository</text><line style="stroke:#181818;stroke-width:0.5;" x1="190" x2="294.2578" y1="164" y2="164"/><line style="stroke:#181818;stroke-width:0.5;" x1="190" x2="294.2578" y1="172" y2="172"/></g><!--class FileSystemSaveGameRepository--><g class="entity" data-entity="FileSystemSaveGameRepository" data-source-line="55" data-uid="ent0014" id="entity_FileSystemSaveGameRepository"><rect fill="#F1F1F1" height="44" rx="2.5" ry="2.5" style="stroke:#181818;stroke-width:0.5;" width="145.8203" x="6" y="136"/><ellipse cx="19" cy="150" fill="#ADD1B2" rx="9" ry="9" style="stroke:#181818;stroke-width:1;"/><path d="M20.7505,152.811 Q20.4429,152.9692 20.1045,153.0483 Q19.7661,153.1274 19.3926,153.1274 Q18.0654,153.1274 17.3667,152.2529 Q16.668,151.3784 16.668,149.7261 Q16.668,148.0693 17.3667,147.1948 Q18.0654,146.3203 19.3926,146.3203 Q19.7661,146.3203 20.1089,146.3994 Q20.4517,146.4785 20.7505,146.6367 L20.7505,148.0781 Q20.4165,147.7705 20.1023,147.6277 Q19.7881,147.4849 19.4541,147.4849 Q18.7422,147.4849 18.3796,148.0496 Q18.0171,148.6143 18.0171,149.7261 Q18.0171,150.8335 18.3796,151.3982 Q18.7422,151.9629 19.4541,151.9629 Q19.7881,151.9629 20.1023,151.8201 Q20.4165,151.6772 20.7505,151.3696 Z " fill="#000000"/><text fill="#000000" font-family="Arial" font-size="8" lengthAdjust="spacing" textLength="117.8203" x="31" y="152.5039">FileSystemSaveGameRepository</text><line style="stroke:#181818;stroke-width:0.5;" x1="7" x2="150.8203" y1="164" y2="164"/><line style="stroke:#181818;stroke-width:0.5;" x1="7" x2="150.8203" y1="172" y2="172"/></g><!--class BlackjackFacade--><g class="entity" data-entity="BlackjackFacade" data-source-line="57" data-uid="ent0015" id="entity_BlackjackFacade"><rect fill="#F1F1F1" height="44" rx="2.5" ry="2.5" style="stroke:#181818;stroke-width:0.5;" width="88.4727" x="35" y="74"/><ellipse cx="48" cy="88" fill="#ADD1B2" rx="9" ry="9" style="stroke:#181818;stroke-width:1;"/><path d="M49.7505,90.811 Q49.4429,90.9692 49.1045,91.0483 Q48.7661,91.1274 48.3926,91.1274 Q47.0654,91.1274 46.3667,90.2529 Q45.668,89.3784 45.668,87.7261 Q45.668,86.0693 46.3667,85.1948 Q47.0654,84.3203 48.3926,84.3203 Q48.7661,84.3203 49.1089,84.3994 Q49.4517,84.4785 49.7505,84.6367 L49.7505,86.0781 Q49.4165,85.7705 49.1023,85.6277 Q48.7881,85.4849 48.4541,85.4849 Q47.7422,85.4849 47.3796,86.0496 Q47.0171,86.6143 47.0171,87.7261 Q47.0171,88.8335 47.3796,89.3982 Q47.7422,89.9629 48.4541,89.9629 Q48.7881,89.9629 49.1023,89.8201 Q49.4165,89.6772 49.7505,89.3696 Z " fill="#000000"/><text fill="#000000" font-family="Arial" font-size="8" lengthAdjust="spacing" textLength="60.4727" x="60" y="90.5039">BlackjackFacade</text><line style="stroke:#181818;stroke-width:0.5;" x1="36" x2="122.4727" y1="102" y2="102"/><line style="stroke:#181818;stroke-width:0.5;" x1="36" x2="122.4727" y1="110" y2="110"/></g><!--class BlackjackCore--><g class="entity" data-entity="BlackjackCore" data-source-line="58" data-uid="ent0016" id="entity_BlackjackCore"><rect fill="#F1F1F1" height="44" rx="2.5" ry="2.5" style="stroke:#181818;stroke-width:0.5;" width="79.1289" x="202.5" y="74"/><ellipse cx="215.5" cy="88" fill="#ADD1B2" rx="9" ry="9" style="stroke:#181818;stroke-width:1;"/><path d="M217.2505,90.811 Q216.9429,90.9692 216.6045,91.0483 Q216.2661,91.1274 215.8926,91.1274 Q214.5654,91.1274 213.8667,90.2529 Q213.168,89.3784 213.168,87.7261 Q213.168,86.0693 213.8667,85.1948 Q214.5654,84.3203 215.8926,84.3203 Q216.2661,84.3203 216.6089,84.3994 Q216.9517,84.4785 217.2505,84.6367 L217.2505,86.0781 Q216.9165,85.7705 216.6023,85.6277 Q216.2881,85.4849 215.9541,85.4849 Q215.2422,85.4849 214.8796,86.0496 Q214.5171,86.6143 214.5171,87.7261 Q214.5171,88.8335 214.8796,89.3982 Q215.2422,89.9629 215.9541,89.9629 Q216.2881,89.9629 216.6023,89.8201 Q216.9165,89.6772 217.2505,89.3696 Z " fill="#000000"/><text fill="#000000" font-family="Arial" font-size="8" lengthAdjust="spacing" textLength="51.1289" x="227.5" y="90.5039">BlackjackCore</text><line style="stroke:#181818;stroke-width:0.5;" x1="203.5" x2="280.6289" y1="102" y2="102"/><line style="stroke:#181818;stroke-width:0.5;" x1="203.5" x2="280.6289" y1="110" y2="110"/></g><!--class GameFacade--><g class="entity" data-entity="GameFacade" data-source-line="59" data-uid="ent0017" id="entity_GameFacade"><rect fill="#F1F1F1" height="44" rx="2.5" ry="2.5" style="stroke:#181818;stroke-width:0.5;" width="76.4688" x="204" y="12"/><ellipse cx="217" cy="26" fill="#B4A7E5" rx="9" ry="9" style="stroke:#181818;stroke-width:1;"/><path d="M215.2559,24.0815 L215.2559,22.939 L219.1626,22.939 L219.1626,24.0815 L217.8574,24.0815 L217.8574,28.3574 L219.1626,28.3574 L219.1626,29.5 L215.2559,29.5 L215.2559,28.3574 L216.561,28.3574 L216.561,24.0815 Z " fill="#000000"/><text fill="#000000" font-family="Arial" font-size="8" font-style="italic" lengthAdjust="spacing" textLength="48.4688" x="229" y="28.5039">GameFacade</text><line style="stroke:#181818;stroke-width:0.5;" x1="205" x2="279.4688" y1="40" y2="40"/><line style="stroke:#181818;stroke-width:0.5;" x1="205" x2="279.4688" y1="48" y2="48"/></g><!--class Controller--><g class="entity" data-entity="Controller" data-source-line="60" data-uid="ent0018" id="entity_Controller"><rect fill="#F1F1F1" height="44" rx="2.5" ry="2.5" style="stroke:#181818;stroke-width:0.5;" width="62.6797" x="47.5" y="12"/><ellipse cx="60.5" cy="26" fill="#ADD1B2" rx="9" ry="9" style="stroke:#181818;stroke-width:1;"/><path d="M62.2505,28.811 Q61.9429,28.9692 61.6045,29.0483 Q61.2661,29.1274 60.8926,29.1274 Q59.5654,29.1274 58.8667,28.2529 Q58.168,27.3784 58.168,25.7261 Q58.168,24.0693 58.8667,23.1948 Q59.5654,22.3203 60.8926,22.3203 Q61.2661,22.3203 61.6089,22.3994 Q61.9517,22.4785 62.2505,22.6367 L62.2505,24.0781 Q61.9165,23.7705 61.6023,23.6277 Q61.2881,23.4849 60.9541,23.4849 Q60.2422,23.4849 59.8796,24.0496 Q59.5171,24.6143 59.5171,25.7261 Q59.5171,26.8335 59.8796,27.3982 Q60.2422,27.9629 60.9541,27.9629 Q61.2881,27.9629 61.6023,27.8201 Q61.9165,27.6772 62.2505,27.3696 Z " fill="#000000"/><text fill="#000000" font-family="Arial" font-size="8" lengthAdjust="spacing" textLength="34.6797" x="72.5" y="28.5039">Controller</text><line style="stroke:#181818;stroke-width:0.5;" x1="48.5" x2="109.1797" y1="40" y2="40"/><line style="stroke:#181818;stroke-width:0.5;" x1="48.5" x2="109.1797" y1="48" y2="48"/></g><g class="link" data-entity-1="GameSession" data-entity-2="Round" data-uid="lnk19" id="link_GameSession_Round"><polygon fill="#181818" points="118.1548,445.3822,125.335,446.0489,128.712,439.6774,121.5318,439.0107,118.1548,445.3822" style="stroke:#181818;stroke-width:1;"/><path d="M128.712,439.6774 C154.4697,425.7586 177.7561,413.1753 203.3971,399.3196" fill="none" style="stroke:#181818;stroke-width:1;"/><text fill="#000000" font-family="Arial" font-size="9" lengthAdjust="spacing" textLength="3.5024" x="199.3971" y="408.7615">*</text><text fill="#000000" font-family="Arial" font-size="9" lengthAdjust="spacing" textLength="5.0054" x="119.1548" y="454.8241">1</text></g><g class="link" data-entity-1="GameSession" data-entity-2="Shoe" data-uid="lnk20" id="link_GameSession_Shoe"><polygon fill="#181818" points="118.1548,466,124.1548,470,130.1548,466,124.1548,462,118.1548,466" style="stroke:#181818;stroke-width:1;"/><path d="M130.1548,466 C158.5161,466 184.6807,466 210.9045,466" fill="none" style="stroke:#181818;stroke-width:1;"/><text fill="#000000" font-family="Arial" font-size="9" lengthAdjust="spacing" textLength="5.0054" x="204.9045" y="475.4419">1</text><text fill="#000000" font-family="Arial" font-size="9" lengthAdjust="spacing" textLength="5.0054" x="119.1548" y="475.4419">1</text></g><g class="link" data-entity-1="GameSession" data-entity-2="GameRules" data-uid="lnk21" id="link_GameSession_GameRules"><polygon fill="#181818" points="118.1548,483.063,121.999,489.1639,129.1092,487.9619,125.265,481.8609,118.1548,483.063" style="stroke:#181818;stroke-width:1;"/><path d="M129.1092,487.9619 C156.0758,500.0215 180.9505,511.1456 206.9514,522.7733" fill="none" style="stroke:#181818;stroke-width:1;"/><text fill="#000000" font-family="Arial" font-size="9" lengthAdjust="spacing" textLength="5.0054" x="200.9514" y="532.2152">1</text><text fill="#000000" font-family="Arial" font-size="9" lengthAdjust="spacing" textLength="5.0054" x="119.1548" y="492.5049">1</text></g><g class="link" data-entity-1="Round" data-entity-2="Hand" data-uid="lnk22" id="link_Round_Hand"><polygon fill="#181818" points="280.7683,389.9535,285.5895,395.316,292.3937,392.9282,287.5726,387.5657,280.7683,389.9535" style="stroke:#181818;stroke-width:1;"/><path d="M292.3937,392.9282 C308.0935,396.9454 314.9692,398.018 332,400 C364.6684,403.8019 373.2738,403.2672 406,400 C418.2683,398.7752 431.7508,396.1634 442.7751,393.6883" fill="none" style="stroke:#181818;stroke-width:1;"/><text fill="#000000" font-family="Arial" font-size="9" lengthAdjust="spacing" textLength="25.0181" x="356.5" y="396.4419">dealer</text><text fill="#000000" font-family="Arial" font-size="9" lengthAdjust="spacing" textLength="5.0054" x="436.7751" y="403.1302">1</text><text fill="#000000" font-family="Arial" font-size="9" lengthAdjust="spacing" textLength="5.0054" x="281.7683" y="399.3954">1</text></g><g class="link" data-entity-1="Round" data-entity-2="PlayerRound" data-uid="lnk23" id="link_Round_PlayerRound"><polygon fill="#181818" points="280.5041,370.299,287.2529,372.8396,292.1937,367.5871,285.4449,365.0465,280.5041,370.299" style="stroke:#181818;stroke-width:1;"/><path d="M292.1937,367.5871 C308.446,363.8165 315.7087,362.1316 331.8107,358.3959" fill="none" style="stroke:#181818;stroke-width:1;"/><text fill="#000000" font-family="Arial" font-size="9" lengthAdjust="spacing" textLength="3.5024" x="327.8107" y="367.8378">*</text><text fill="#000000" font-family="Arial" font-size="9" lengthAdjust="spacing" textLength="5.0054" x="281.5041" y="379.7409">1</text></g><g class="link" data-entity-1="PlayerRound" data-entity-2="Hand" data-uid="lnk24" id="link_PlayerRound_Hand"><polygon fill="#181818" points="406.1045,364.3662,410.2005,370.301,417.2542,368.8027,413.1582,362.8679,406.1045,364.3662" style="stroke:#181818;stroke-width:1;"/><path d="M417.2542,368.8027 C429.6141,373.7208 431.933,374.6435 442.9151,379.0133" fill="none" style="stroke:#181818;stroke-width:1;"/><text fill="#000000" font-family="Arial" font-size="9" lengthAdjust="spacing" textLength="13.5088" x="428.9151" y="388.4552">1..*</text><text fill="#000000" font-family="Arial" font-size="9" lengthAdjust="spacing" textLength="5.0054" x="407.1045" y="373.8081">1</text></g><g class="link" data-entity-1="Hand" data-entity-2="Bet" data-uid="lnk25" id="link_Hand_Bet"><polygon fill="#181818" points="490.2416,379.1011,497.2866,380.6397,501.4165,374.7283,494.3714,373.1898,490.2416,379.1011" style="stroke:#181818;stroke-width:1;"/><path d="M501.4165,374.7283 C512.4843,370.3974 514.8149,369.4855 526.951,364.7366" fill="none" style="stroke:#181818;stroke-width:1;"/></g><g class="link" data-entity-1="Hand" data-entity-2="Card" data-uid="lnk26" id="link_Hand_Card"><polygon fill="#181818" points="490.2416,396.8989,494.3714,402.8102,501.4165,401.2717,497.2866,395.3603,490.2416,396.8989" style="stroke:#181818;stroke-width:1;"/><path d="M501.4165,401.2717 C515.9962,406.9768 523.6312,409.9644 537.9682,415.5745" fill="none" style="stroke:#181818;stroke-width:1;"/><text fill="#000000" font-family="Arial" font-size="9" lengthAdjust="spacing" textLength="3.5024" x="533.9682" y="425.0164">*</text></g><g class="link" data-entity-1="Participant" data-entity-2="License" data-uid="lnk27" id="link_Participant_License"><polygon fill="#181818" points="112.1938,258.8014,118.9221,261.3957,123.9046,256.1828,117.1764,253.5885,112.1938,258.8014" style="stroke:#181818;stroke-width:1;"/><path d="M123.9046,256.1828 C153.7284,249.5142 185.8787,242.3253 213.9395,236.0508" fill="none" style="stroke:#181818;stroke-width:1;"/></g><g class="link" data-entity-1="Participant" data-entity-2="PlayerLike" data-uid="lnk28" id="link_Participant_PlayerLike"><polygon fill="none" points="209.4107,294.9365,193.1537,285.1533,190.5352,296.8641,209.4107,294.9365" style="stroke:#181818;stroke-width:1;"/><path d="M112.1938,273.1986 C140.4576,279.5185 163.7623,284.7295 191.8444,291.0087" fill="none" style="stroke:#181818;stroke-width:1;stroke-dasharray:7,7;"/></g><g class="link" data-entity-1="FileSystemSaveGameRepository" data-entity-2="SaveGameRepository" data-uid="lnk29" id="link_FileSystemSaveGameRepository_SaveGameRepository"><polygon fill="none" points="188.8183,158,170.8183,152,170.8183,164,188.8183,158" style="stroke:#181818;stroke-width:1;"/><path d="M152.0238,158 C164.415,158 159.0772,158 170.8183,158" fill="none" style="stroke:#181818;stroke-width:1;stroke-dasharray:7,7;"/></g><g class="link" data-entity-1="BlackjackFacade" data-entity-2="BlackjackCore" data-uid="lnk30" id="link_BlackjackFacade_BlackjackCore"><polygon fill="#181818" points="202.4125,96,193.4125,92,197.4125,96,193.4125,100,202.4125,96" style="stroke:#181818;stroke-width:1;"/><path d="M123.145,96 C147.8284,96 172.5325,96 196.4125,96" fill="none" style="stroke:#181818;stroke-width:1;"/></g><g class="link" data-entity-1="Controller" data-entity-2="GameFacade" data-uid="lnk31" id="link_Controller_GameFacade"><polygon fill="#181818" points="203.952,34,194.952,30,198.952,34,194.952,38,203.952,34" style="stroke:#181818;stroke-width:1;"/><path d="M110.6618,34 C137.2114,34 169.685,34 197.952,34" fill="none" style="stroke:#181818;stroke-width:1;stroke-dasharray:7,7;"/></g><!--SRC=[VL9TZzCm47pthp3b1NfATVS6F5GgbGgLJWWrls1hRrjJnuxi3L0-_Zjh9vVugXwLgYGxuzdrpBvg0nmRa1OklYCP6oHm82mUI9ANmHnF9BK9gCXu9qGy6zT2W4RkGPsFmNTEhxtrGRxUv5_1q7Y0pjB6E_e23SfLC61luxNvXV9zWIaBCOx8m_qrj28APjyHZfntBrAsohjCkHSY8_8JZrDZZ7mb-Lj8MSa8tt6h-VLEHe90ktInDs_5twSZkJ2GsnD4p5oDOBVE45zi3K57Ff7AqBRsiigMbHfVsMKCazATF87JSI9yXh67IdBzFCe7B6K-8cLI0yRL1ESqYd6n2-0KzeMHMvyy3hrqW1_3V0vHnnqUZBMbSB9brrcCmtUwqZWxcsAKQS7HCE4UR6eu7Nyq2btisv71m0_ysVBkS1I9PHnXE832mOX7mvDEnPeZo1DWwwCX7ow3xiPOh2-HiBb1UVB4yZf-u_y656YyhgxPmg9LqdX6NFCM1Myj3otAvPWzpEIygkHiFkitu3RApsJqY-1aR1z-YUNCF-HDukvNEBSjbaQK2pHfB1RpNaPahLJa5Pa-aagEiimm0KDWp-gBnPzbcS__pE_9DqAvIaDMrV8gYybm5baMWVm3]--></g></svg>