<svg xmlns="http://www.w3.org/2000/svg" viewBox="0 0 256 256" role="img" aria-label="Clipboard favicon">
  <defs>
    <linearGradient id="bg" x1="24" y1="232" x2="232" y2="24" gradientUnits="userSpaceOnUse">
      <stop offset="0" stop-color="#1ecde2"/>
      <stop offset="0.55" stop-color="#1677dd"/>
      <stop offset="1" stop-color="#6a59eb"/>
    </linearGradient>
    <linearGradient id="accent" x1="146" y1="204" x2="214" y2="136" gradientUnits="userSpaceOnUse">
      <stop offset="0" stop-color="#1698e5"/>
      <stop offset="1" stop-color="#35dbe8"/>
    </linearGradient>
    <filter id="shadow" x="-20%" y="-20%" width="140%" height="140%">
      <feDropShadow dx="0" dy="10" stdDeviation="10" flood-color="#123d88" flood-opacity="0.22"/>
    </filter>
  </defs>

  <rect width="256" height="256" rx="52" fill="url(#bg)"/>
  <path d="M0 190 84 106l46 46-66 66H0Z" fill="#ffffff" opacity="0.08"/>
  <path d="M184 256 256 184v72h-72Z" fill="#31d7cf" opacity="0.22"/>

  <g filter="url(#shadow)">
    <rect x="30" y="34" width="152" height="178" rx="24" fill="#ffffff"/>
    <rect x="84" y="16" width="72" height="36" rx="14" fill="#ffffff"/>

    <circle cx="82" cy="90" r="28" fill="#3d4dd8"/>
    <circle cx="82" cy="79" r="11" fill="#ffffff"/>
    <path d="M64 103c4-11 16-18 18-18s14 7 18 18Z" fill="#ffffff"/>

    <rect x="118" y="72" width="58" height="10" rx="5" fill="#4b4dde"/>
    <rect x="118" y="96" width="58" height="10" rx="5" fill="#4b4dde"/>

    <rect x="52" y="132" width="104" height="10" rx="5" fill="#2388de"/>
    <rect x="52" y="156" width="86" height="10" rx="5" fill="#2388de"/>
    <rect x="52" y="180" width="58" height="10" rx="5" fill="#2388de"/>

    <circle cx="186" cy="188" r="52" fill="#ffffff"/>
    <circle cx="186" cy="188" r="47" fill="none" stroke="#1e65d6" stroke-width="10"/>
    <path d="m164 188 16 16 32-32" fill="none" stroke="url(#accent)" stroke-linecap="round" stroke-linejoin="round" stroke-width="12"/>
  </g>
</svg>
